<?xml version="1.0" standalone="no"?>
<!DOCTYPE svg PUBLIC "-//W3C//DTD SVG 20010904//EN"
 "http://www.w3.org/TR/2001/REC-SVG-20010904/DTD/svg10.dtd">
<svg version="1.0" xmlns="http://www.w3.org/2000/svg"
 width="1789.000000pt" height="1789.000000pt" viewBox="0 0 1789.000000 1789.000000"
 preserveAspectRatio="xMidYMid meet">
<metadata>
Created by potrace 1.14, written by Peter Selinger 2001-2017
</metadata>
<g transform="translate(0.000000,1789.000000) scale(0.100000,-0.100000)"
fill="#000000" stroke="none">
<path d="M8655 17829 c-318 -26 -700 -116 -985 -231 -798 -323 -1436 -909
-1813 -1664 -133 -266 -207 -472 -276 -764 -66 -281 -85 -452 -86 -770 0 -279
9 -385 51 -620 188 -1029 815 -1900 1738 -2413 320 -178 729 -319 1086 -376
241 -38 326 -45 570 -45 244 0 329 7 570 45 1054 167 2005 864 2499 1829 192
376 309 763 363 1205 17 140 17 605 0 735 -59 454 -162 798 -349 1174 -164
327 -356 597 -618 865 -588 602 -1357 963 -2199 1031 -147 11 -403 11 -551 -1z"/>
<path d="M3595 12410 c-705 -78 -1326 -340 -1870 -789 -121 -100 -341 -322
-448 -452 -452 -553 -717 -1211 -778 -1927 -14 -175 -7 -506 16 -682 106 -824
486 -1564 1088 -2118 642 -591 1463 -911 2335 -912 786 0 1542 264 2157 756
143 114 362 329 484 474 442 527 714 1164 792 1860 21 187 16 602 -10 795 -49
360 -141 681 -290 1005 -350 760 -975 1375 -1745 1715 -166 73 -444 165 -616
204 -271 61 -386 73 -725 76 -170 2 -346 0 -390 -5z"/>
<path d="M13675 12414 c-707 -73 -1324 -321 -1860 -750 -142 -113 -416 -388
-529 -529 -369 -463 -616 -1014 -710 -1585 -35 -213 -46 -352 -46 -580 0 -542
118 -1046 357 -1525 172 -345 382 -635 658 -910 471 -470 1051 -786 1705 -929
261 -57 401 -71 725 -71 328 1 421 9 699 66 641 131 1226 440 1699 897 551
534 895 1201 1018 1972 31 192 38 680 14 890 -123 1074 -733 2023 -1655 2574
-391 234 -814 385 -1275 457 -117 18 -191 22 -450 24 -170 2 -328 1 -350 -1z"/>
<path d="M8665 6934 c-484 -49 -841 -148 -1240 -344 -683 -335 -1224 -869
-1565 -1545 -400 -794 -478 -1697 -219 -2555 56 -186 108 -317 199 -505 273
-560 680 -1022 1201 -1368 441 -292 910 -468 1449 -544 179 -25 721 -25 900 0
539 76 1008 252 1449 544 674 446 1170 1111 1400 1873 259 858 182 1761 -219
2555 -341 676 -882 1210 -1565 1545 -348 171 -677 271 -1070 326 -114 15 -617
28 -720 18z"/>
</g>
</svg>
